<svg font-family="Geist, system-ui, -apple-system, Segoe UI, Helvetica Neue, Arial, sans-serif" xmlns="http://www.w3.org/2000/svg" viewBox="-30 -46 1090 1276" width="1000" role="img" aria-label="Locator map. Blue is Lake Victoria and its Winam Gulf; the warm tone is land. Seme sits on the north east shore of the gulf, in Siaya County, western Kenya.">
<rect x="-30" y="-46" width="1090" height="1276" fill="#f2f2f0"/>
<path d="M123.6,0.0L132.8,9.2L119.9,20.3L108.9,42.4L116.2,57.2L108.9,64.6L105.2,88.6L90.4,99.6L92.3,105.2L105.2,103.3L110.7,108.9L107.0,123.6L95.9,127.3L90.4,136.5L90.4,147.6L97.8,151.3L92.3,156.8L95.9,164.2L84.9,173.4L55.4,180.8L38.7,195.6L53.5,206.6L44.3,234.3L49.8,234.3L49.8,238.0L68.3,234.3L90.4,252.8L99.6,269.4L99.6,280.4L114.4,300.7L110.7,306.3L132.8,345.0L68.3,354.2L86.7,356.1L125.5,350.6L129.2,372.7L149.4,365.3L158.7,367.2L171.6,393.0L166.1,400.4L156.8,402.2L162.4,417.0L177.1,417.0L199.3,404.1L206.6,413.3L210.3,428.0L193.7,442.8L203.0,463.1L226.9,452.0L223.2,444.6L212.2,444.6L212.2,439.1L228.8,431.7L232.5,420.7L239.9,424.4L236.2,417.0L221.4,411.4L219.6,404.1L252.8,396.7L263.8,411.4L304.4,383.8L306.3,393.0L291.5,404.1L293.4,413.3L310.0,422.5L304.4,437.3L295.2,442.8L276.8,442.8L269.4,448.3L267.5,457.6L271.2,461.3L308.1,459.4L319.2,464.9L317.3,468.6L293.4,483.4L282.3,479.7L274.9,468.6L265.7,477.9L263.8,494.5L249.1,503.7L238.0,501.8L236.2,507.4L254.6,531.4L260.1,535.1L269.4,533.2L274.9,538.7L276.8,553.5L271.2,553.5L269.4,559.0L276.8,562.7L291.5,559.0L291.5,566.4L300.7,570.1L310.0,588.6L315.5,588.6L326.6,572.0L337.6,577.5L352.4,575.6L367.2,562.7L374.5,562.7L376.4,568.3L361.6,588.6L365.3,592.3L376.4,590.4L385.6,597.8L378.2,607.0L398.5,636.5L405.9,640.2L407.7,629.2L420.7,623.6L433.6,631.0L444.6,627.3L453.9,645.8L463.1,655.0L474.2,656.8L476.0,666.1L463.1,677.1L461.3,688.2L446.5,693.7L450.2,697.4L446.5,714.0L452.0,719.6L466.8,715.9L472.3,719.6L461.3,730.6L464.9,736.2L470.5,734.3L470.5,741.7L457.6,749.1L477.9,750.9L481.5,754.6L479.7,776.8L503.7,774.9L511.1,786.0L509.2,793.4L520.3,802.6L520.3,810.0L512.9,811.8L505.5,822.9L498.2,819.2L490.8,824.7L496.3,832.1L492.6,839.5L500.0,848.7L507.4,848.7L509.2,839.5L525.8,848.7L538.7,832.1L531.4,824.7L531.4,811.8L546.1,811.8L551.7,806.3L549.8,795.2L579.3,780.4L577.5,767.5L592.3,762.0L605.2,739.9L616.2,736.2L619.9,721.4L631.0,726.9L653.1,697.4L655.0,684.5L647.6,680.8L647.6,669.7L642.1,666.1L631.0,625.5L625.5,621.8L621.8,627.3L605.2,629.2L590.4,618.1L573.8,590.4L581.2,572.0L616.2,570.1L625.5,562.7L651.3,557.2L658.7,560.9L658.7,570.1L664.2,572.0L673.4,548.0L688.2,544.3L706.6,549.8L706.6,542.4L726.9,529.5L736.2,535.1L743.5,553.5L765.7,551.7L773.1,546.1L780.4,562.7L798.9,570.1L808.1,555.4L824.7,551.7L828.4,535.1L848.7,522.1L863.5,520.3L857.9,509.2L861.6,498.2L870.8,500.0L880.1,509.2L885.6,503.7L918.8,500.0L924.4,503.7L922.5,512.9L935.4,507.4L952.0,512.9L955.7,509.2L950.2,507.4L948.3,500.0L968.6,476.0L987.1,461.3L1000.0,464.9L1000.0,784.1L988.9,776.8L961.3,774.9L955.7,765.7L939.1,765.7L929.9,774.9L898.5,771.2L887.5,760.1L861.6,747.2L833.9,747.2L821.0,754.6L815.5,750.9L802.6,760.1L782.3,763.8L778.6,771.2L769.4,774.9L750.9,774.9L734.3,782.3L712.2,839.5L717.7,845.0L721.4,865.3L784.1,929.9L791.5,929.9L800.7,937.3L800.7,948.3L791.5,964.9L774.9,966.8L774.9,976.0L765.7,988.9L760.1,987.1L728.8,1009.2L699.3,1016.6L691.9,1025.8L679.0,1031.4L667.9,1018.5L669.7,1005.5L684.5,985.2L695.6,988.9L701.1,979.7L695.6,970.5L675.3,977.9L675.3,963.1L656.8,946.5L653.1,920.7L636.5,924.4L619.9,920.7L612.5,913.3L607.0,917.0L601.5,924.4L608.9,928.0L607.0,941.0L612.5,952.0L605.2,957.6L599.6,953.9L590.4,955.7L586.7,959.4L590.4,976.0L581.2,979.7L564.6,964.9L562.7,950.2L566.4,942.8L551.7,935.4L544.3,911.4L538.7,924.4L518.5,935.4L536.9,950.2L538.7,953.9L533.2,955.7L527.7,948.3L496.3,944.6L494.5,935.4L487.1,931.7L487.1,924.4L496.3,920.7L479.7,920.7L477.9,911.4L466.8,915.1L464.9,905.9L455.7,902.2L453.9,893.0L441.0,898.5L428.0,898.5L418.8,891.1L405.9,894.8L396.7,889.3L391.1,872.7L376.4,917.0L333.9,957.6L330.3,988.9L335.8,1018.5L330.3,1036.9L315.5,1035.1L306.3,1036.9L297.0,1046.1L282.3,1046.1L274.9,1038.7L274.9,1029.5L267.5,1025.8L260.1,1035.1L262.0,1053.5L239.9,1072.0L228.8,1072.0L215.9,1060.9L199.3,1072.0L208.5,1081.2L206.6,1086.7L221.4,1094.1L215.9,1105.2L228.8,1108.9L238.0,1103.3L245.4,1119.9L234.3,1127.3L228.8,1140.2L215.9,1151.3L190.0,1158.7L190.0,1169.7L179.0,1173.4L180.8,1177.1L186.3,1175.3L188.2,1180.8L20.3,1180.8L20.3,1059.0L16.6,1055.4L20.3,933.6L27.7,920.7L24.0,918.8L24.0,904.1L62.7,679.0L68.3,675.3L138.4,693.7L149.4,691.9L72.0,673.4L64.6,666.1L92.3,501.8L94.1,496.3L99.6,498.2L105.2,490.8L119.9,498.2L153.1,500.0L155.0,490.8L121.8,474.2L112.5,474.2L101.5,485.2L94.1,483.4L57.2,363.5L57.2,359.8L68.3,356.1L55.4,354.2L51.7,346.9L0.0,173.4L123.6,1.8Z" fill="#a9c8e8" stroke="#5f87b6" stroke-width="2.4" stroke-linejoin="round"/>
<text x="-4" y="-14" class="m" font-size="20" letter-spacing="0.11em" fill="#787d85">SEME, SIAYA COUNTY &#183; BOOKLET P.6</text>
<text x="430" y="188" class="s" font-size="24" letter-spacing="0.14em" fill="#787d85">SIAYA COUNTY</text>
<circle cx="839" cy="389" r="26" fill="none" stroke="#17357a" stroke-width="2"/>
<circle cx="839" cy="389" r="12" fill="#17357a"/>
<text x="878" y="399" class="s" font-size="32" font-weight="600" fill="#17357a">Seme</text>
<text x="694" y="677" class="s" font-size="26" font-style="italic" fill="#375c8c">Winam Gulf</text>
<text x="565" y="915" class="s" font-size="26" font-style="italic" fill="#375c8c">Homa Bay</text>
<text x="46" y="1090" class="s" font-size="30" font-style="italic" fill="#375c8c">Lake Victoria</text>
</svg>
